<?xml version="1.0" encoding="UTF-8" standalone="no"?>
<!-- Generator: Adobe Illustrator 16.0.4, SVG Export Plug-In . SVG Version: 6.00 Build 0)  -->

<svg
   xmlns:dc="http://purl.org/dc/elements/1.1/"
   xmlns:cc="http://creativecommons.org/ns#"
   xmlns:rdf="http://www.w3.org/1999/02/22-rdf-syntax-ns#"
   xmlns:svg="http://www.w3.org/2000/svg"
   xmlns="http://www.w3.org/2000/svg"
   xmlns:sodipodi="http://sodipodi.sourceforge.net/DTD/sodipodi-0.dtd"
   xmlns:inkscape="http://www.inkscape.org/namespaces/inkscape"
   version="1.0"
   id="Layer_1"
   x="0px"
   y="0px"
   width="544.15967"
   height="139.8082"
   viewBox="0 0 544.15967 139.8082"
   enable-background="new 0 0 336.733 138.04"
   xml:space="preserve"
   sodipodi:docname="icon-params-compact.svg"
   inkscape:version="0.92.3 (2405546, 2018-03-11)"
   inkscape:export-filename="/home/work/Dropbox/SCM/talks/Deck/icons/icon-params-compact.png"
   inkscape:export-xdpi="300"
   inkscape:export-ydpi="300"><metadata
   id="metadata29"><rdf:RDF><cc:Work
       rdf:about=""><dc:format>image/svg+xml</dc:format><dc:type
         rdf:resource="http://purl.org/dc/dcmitype/StillImage" /><dc:title /></cc:Work></rdf:RDF></metadata><defs
   id="defs27">
		
		
		
		
	
	
	
	
	
	
	

	
	
	
	
	
	
</defs><sodipodi:namedview
   pagecolor="#ffffff"
   bordercolor="#666666"
   borderopacity="1"
   objecttolerance="10"
   gridtolerance="10"
   guidetolerance="10"
   inkscape:pageopacity="0"
   inkscape:pageshadow="2"
   inkscape:window-width="1920"
   inkscape:window-height="1025"
   id="namedview25"
   showgrid="false"
   inkscape:zoom="0.6782688"
   inkscape:cx="-194.05572"
   inkscape:cy="-260.69895"
   inkscape:window-x="0"
   inkscape:window-y="27"
   inkscape:window-maximized="1"
   inkscape:current-layer="text1190"
   inkscape:snap-intersection-paths="true"
   inkscape:snap-nodes="false"
   fit-margin-top="1"
   fit-margin-left="1"
   fit-margin-right="1"
   fit-margin-bottom="1" />
<g
   id="g1564"
   transform="translate(7.7575406,-916.10352)"><path
     id="path1184"
     d="M 88.364037,966.60942 35.288929,947.80902 C 22.928382,942.21889 7.9128004,945.65523 -0.66013622,956.90547 -10.632875,969.99243 -8.1078034,988.68451 4.9792164,998.65721 16.334168,1007.31 31.905861,1006.5498 42.343782,997.64998 Z"
     style="opacity:1;fill:#009dff;fill-opacity:1;stroke:none;stroke-width:9.8430233;stroke-linecap:round;stroke-linejoin:round;stroke-miterlimit:4;stroke-dasharray:none;stroke-dashoffset:0;stroke-opacity:1"
     inkscape:connector-curvature="0"
     inkscape:transform-center-x="44.634391"
     inkscape:transform-center-y="8.1700291"
     sodipodi:nodetypes="cccccc" /><path
     style="color:#000000;font-style:normal;font-variant:normal;font-weight:normal;font-stretch:normal;font-size:medium;line-height:normal;font-family:sans-serif;font-variant-ligatures:normal;font-variant-position:normal;font-variant-caps:normal;font-variant-numeric:normal;font-variant-alternates:normal;font-feature-settings:normal;text-indent:0;text-align:start;text-decoration:none;text-decoration-line:none;text-decoration-style:solid;text-decoration-color:#000000;letter-spacing:normal;word-spacing:normal;text-transform:none;writing-mode:lr-tb;direction:ltr;text-orientation:mixed;dominant-baseline:auto;baseline-shift:baseline;text-anchor:start;white-space:normal;shape-padding:0;clip-rule:nonzero;display:inline;overflow:visible;visibility:visible;opacity:1;isolation:auto;mix-blend-mode:normal;color-interpolation:sRGB;color-interpolation-filters:linearRGB;solid-color:#000000;solid-opacity:1;vector-effect:none;fill:#fd9700;fill-opacity:1;fill-rule:nonzero;stroke:none;stroke-width:18.6788311;stroke-linecap:round;stroke-linejoin:round;stroke-miterlimit:4;stroke-dasharray:none;stroke-dashoffset:0;stroke-opacity:1;color-rendering:auto;image-rendering:auto;shape-rendering:auto;text-rendering:auto;enable-background:accumulate"
     d="m 88.363281,917.10352 c -27.230512,0 -49.505858,22.27536 -49.505859,49.50586 10e-7,27.23055 22.275336,49.50582 49.505859,49.50582 27.230529,0 49.503909,-22.27527 49.503909,-49.50582 0,-27.2305 -22.2734,-49.50586 -49.503909,-49.50586 z m 0,18.67968 c 17.135719,0 30.826169,13.69047 30.826169,30.82618 0,17.13578 -13.69046,30.82617 -30.826169,30.82617 -17.135711,0 -30.828124,-13.69039 -30.828125,-30.82617 10e-7,-17.13571 13.692403,-30.82618 30.828125,-30.82618 z"
     id="path1182"
     inkscape:connector-curvature="0" /><path
     inkscape:connector-curvature="0"
     style="opacity:1;fill:#ef3203;fill-opacity:1;stroke:none;stroke-width:9.8430233;stroke-linecap:round;stroke-linejoin:round;stroke-miterlimit:4;stroke-dasharray:none;stroke-dashoffset:0;stroke-opacity:1"
     d="m 88.364037,966.60942 -7.892578,52.32028 c -2.826676,13.2681 3.731608,27.206 16.550778,33.1836 14.912093,6.9537 32.636233,0.502 39.589853,-14.4101 6.03333,-12.9385 1.97106,-27.9902 -8.94922,-36.291 z"
     id="path1180"
     sodipodi:nodetypes="cccscc" /></g><g
   aria-label="ParAMS"
   style="font-style:normal;font-variant:normal;font-weight:800;font-stretch:normal;font-size:108.10923767px;line-height:1.25;font-family:Lato;-inkscape-font-specification:'Lato Ultra-Bold';letter-spacing:0px;word-spacing:0px;fill:#4d4d4d;fill-opacity:1;stroke:none;stroke-width:0.54054618"
   id="text1190"><path
     d="M 188.49537,82.147465 V 109.12072 H 172.27899 V 30.687468 h 26.48676 q 8.05414,0 13.89204,1.891912 5.89195,1.891911 9.67577,5.297352 3.78383,3.351387 5.56763,8.000084 1.83785,4.648697 1.83785,10.108214 0,5.783844 -1.89191,10.594705 -1.89191,4.810861 -5.72979,8.270357 -3.83787,3.459495 -9.67577,5.405461 -5.8379,1.891912 -13.67582,1.891912 z m 0,-12.432562 h 10.27038 q 7.6217,0 11.13525,-3.675714 3.5676,-3.675714 3.5676,-10.054159 0,-2.91895 -0.91892,-5.297353 -0.86488,-2.432458 -2.70273,-4.108151 -1.78381,-1.729748 -4.54059,-2.648676 -2.75679,-0.918929 -6.54061,-0.918929 h -10.27038 z"
     style="stroke-width:0.54054618"
     id="path1602"
     inkscape:connector-curvature="0" /><path
     d="m 271.18038,109.12072 q -2.10813,0 -3.24328,-0.5946 -1.08109,-0.5946 -1.7838,-2.48651 l -1.1892,-3.51355 q -2.10813,1.83785 -4.10815,3.24327 -1.94597,1.35137 -4.10816,2.32435 -2.10813,0.91893 -4.54058,1.40542 -2.37841,0.48649 -5.29736,0.48649 -3.67571,0 -6.70277,-0.97298 -3.02706,-0.97298 -5.2433,-2.86489 -2.16218,-1.94597 -3.35138,-4.81087 -1.18921,-2.86489 -1.18921,-6.594659 0,-3.081113 1.56759,-6.108172 1.56758,-3.081113 5.35141,-5.567625 3.83787,-2.540567 10.16226,-4.216261 6.37845,-1.675693 15.94612,-1.891911 v -2.864895 q 0,-5.243298 -2.21624,-7.675756 -2.21624,-2.486512 -6.37845,-2.486512 -3.08111,0 -5.13519,0.756764 -2.05407,0.70271 -3.62166,1.567584 -1.51353,0.810819 -2.86489,1.567584 -1.35137,0.70271 -3.13517,0.70271 -1.56758,0 -2.64867,-0.756764 -1.02704,-0.81082 -1.72975,-1.891912 l -2.64868,-4.756807 q 4.91897,-4.432478 10.86498,-6.594663 5.94601,-2.216239 12.865,-2.216239 4.97302,0 8.86496,1.621638 3.94598,1.621639 6.64871,4.540588 2.75679,2.864895 4.21626,6.864937 1.45948,4.000041 1.45948,8.756848 v 35.027393 z m -19.62183,-9.189285 q 3.67571,0 6.4325,-1.297311 2.75679,-1.351366 5.45952,-4.108151 v -8.648739 q -5.45952,0.216218 -9.08118,0.918928 -3.62166,0.70271 -5.78384,1.783803 -2.10813,1.027038 -3.02706,2.432458 -0.86488,1.351365 -0.86488,2.973004 0,3.243277 1.78381,4.594642 1.83785,1.351366 5.08113,1.351366 z"
     style="stroke-width:0.54054618"
     id="path1604"
     inkscape:connector-curvature="0" /><path
     d="M 289.63665,109.12072 V 53.390408 h 8.81091 q 2.27029,0 3.13516,0.810819 0.86488,0.810819 1.24326,2.81084 l 0.75676,5.567626 q 2.64868,-4.756806 6.10818,-7.513592 3.51355,-2.756785 8.16224,-2.756785 3.78383,0 6.16223,1.783802 l -0.97298,11.027142 q -0.27028,1.081093 -0.86488,1.51353 -0.54054,0.378382 -1.51353,0.378382 -0.86487,0 -2.48651,-0.216219 -1.62164,-0.270273 -3.02706,-0.270273 -4.10815,0 -6.54061,2.270294 -2.3784,2.21624 -4.05409,6.216281 v 34.108465 z"
     style="stroke-width:0.54054618"
     id="path1606"
     inkscape:connector-curvature="0" /><path
     d="m 395.39113,109.12072 h -12.59472 q -2.10813,0 -3.4595,-0.97298 -1.29731,-1.02704 -1.94596,-2.59462 l -5.29736,-14.973134 h -31.24357 l -5.29735,14.973134 q -0.54054,1.35136 -1.89191,2.48651 -1.35137,1.08109 -3.40544,1.08109 h -12.70284 l 30.64897,-78.433252 h 16.59477 z M 344.79601,79.336625 h 23.3516 l -8.48658,-24.000251 q -0.75676,-1.891911 -1.62164,-4.432479 -0.81082,-2.540567 -1.62164,-5.459516 -0.75676,2.973004 -1.56758,5.567626 -0.81082,2.540567 -1.56758,4.432478 z"
     style="stroke-width:0.54054618"
     id="path1608"
     inkscape:connector-curvature="0" /><path
     d="m 438.22101,75.06631 q 0.97298,1.891912 1.83785,3.891933 0.91893,2.00002 1.72975,4.108151 0.81082,-2.162185 1.72975,-4.216261 0.91893,-2.054075 1.94596,-3.945987 l 21.78402,-41.676111 q 0.48649,-0.918928 1.02703,-1.40542 0.54055,-0.540546 1.13515,-0.756765 0.64866,-0.270273 1.40542,-0.324327 0.81082,-0.05406 1.89191,-0.05406 h 12.32446 V 109.12072 H 470.70783 V 60.958055 q 0,-1.459475 0.0541,-3.189223 0.10811,-1.729748 0.27027,-3.567605 l -22.37861,42.540985 q -1.83786,3.513548 -5.67574,3.513548 h -2.27029 q -1.89191,0 -3.35139,-0.864871 -1.45947,-0.918929 -2.32435,-2.648677 L 412.49101,54.093118 q 0.16216,1.837857 0.27027,3.621659 0.10811,1.729748 0.10811,3.243278 V 109.12072 H 398.54492 V 30.687468 h 12.32445 q 1.02704,0 1.83786,0.05406 0.81081,0.05405 1.40542,0.324327 0.64865,0.216219 1.13514,0.756765 0.54055,0.486492 1.02704,1.40542 l 21.94618,41.838275 z"
     style="stroke-width:0.54054618"
     id="path1610"
     inkscape:connector-curvature="0" /><path
     d="m 537.86232,45.714652 q -0.75676,1.243256 -1.56758,1.837857 -0.75677,0.540546 -2.00002,0.540546 -1.18921,0 -2.59463,-0.810819 -1.35136,-0.864874 -3.18922,-1.837857 -1.83786,-0.972983 -4.21626,-1.783803 -2.3784,-0.864873 -5.56762,-0.864873 -5.62168,0 -8.43253,2.540567 -2.81084,2.486512 -2.81084,6.540609 0,2.594621 1.51353,4.324369 1.56759,1.675693 4.0541,2.918949 2.54057,1.243257 5.72979,2.21624 3.18922,0.972983 6.54061,2.162185 3.35139,1.135147 6.54061,2.702731 3.18922,1.567584 5.67573,3.945987 2.54057,2.378403 4.0541,5.837899 1.56758,3.405441 1.56758,8.324411 0,5.351407 -1.89191,10.054159 -1.83786,4.648697 -5.35141,8.162251 -3.51355,3.45949 -8.70279,5.45951 -5.13519,2.00002 -11.6758,2.00002 -3.72977,0 -7.45953,-0.75676 -3.67572,-0.75677 -7.13521,-2.10813 -3.40545,-1.35137 -6.4325,-3.24328 -3.02706,-1.89191 -5.29736,-4.216258 l 4.75681,-7.675756 q 0.5946,-0.864874 1.56758,-1.40542 0.97299,-0.594601 2.05408,-0.594601 1.45947,0 3.08111,1.081092 1.62164,1.081093 3.72977,2.378403 2.10813,1.297311 4.86492,2.378404 2.81084,1.081092 6.70277,1.081092 5.67573,0 8.75685,-2.594622 3.13517,-2.594621 3.13517,-7.72981 0,-2.973004 -1.56759,-4.810861 -1.51353,-1.837857 -4.00004,-3.081113 -2.48651,-1.243257 -5.67573,-2.108131 -3.18923,-0.918928 -6.54061,-2.000021 -3.35139,-1.081092 -6.54061,-2.594621 -3.18922,-1.51353 -5.67574,-4.000042 -2.48651,-2.486512 -4.05409,-6.162227 -1.51353,-3.675714 -1.51353,-9.13523 0,-4.378424 1.72974,-8.486575 1.72975,-4.108151 5.08114,-7.297374 3.35139,-3.189222 8.2163,-5.135189 4.91897,-1.945966 11.24336,-1.945966 7.08116,0 13.08122,2.216239 6.05412,2.162185 10.21632,6.054118 z"
     style="stroke-width:0.54054618"
     id="path1612"
     inkscape:connector-curvature="0" /></g>
</svg>